# xmcd
#
# Track frame offsets:
#	150
#	13001
#	28101
#	38455
#	56659
#	74087
#	93454
#	110056
#	128759
#	143398
#	158647
#	173212
#	184724
#	202236
#
# Disc length: 2816 seconds
#
# Revision: 0
# Processed by: cddbd v1.5.2PL0 Copyright (c) Steve Scherf et al.
# Submitted via: audiograbber 1.83.01
#
DISCID=c20afe0e
DTITLE=Pass over Blues - Better Ways
DYEAR=2011
DGENRE=
TTITLE0=what a guy
TTITLE1=99 days
TTITLE2=so many people
TTITLE3=tell me how
TTITLE4=my own way
TTITLE5=maybe
TTITLE6=take me to the river
TTITLE7=while my guitar gently weeps
TTITLE8=tell me why
TTITLE9=check out
TTITLE10=verloren gegangen
TTITLE11=i`m back
TTITLE12=better ways
TTITLE13=please
EXTD=
EXTT0=
EXTT1=
EXTT2=
EXTT3=
EXTT4=
EXTT5=
EXTT6=
EXTT7=
EXTT8=
EXTT9=
EXTT10=
EXTT11=
EXTT12=
EXTT13=
PLAYORDER=
